<svg xmlns="http://www.w3.org/2000/svg" id="Layer_4" width="546.75" height="118.5" xmlns:xlink="http://www.w3.org/1999/xlink"><defs id="defs3849"><radialGradient id="radialGradient4782" cx="86.63" cy="167.07" r="54.72" gradientUnits="userSpaceOnUse"><stop id="stop4784" offset="0" stop-color="#FFF"/><stop id="stop4802" offset="1" stop-color="#848484"/></radialGradient><radialGradient id="SVGID_1_" cx="86.63" cy="167.07" r="54.72" gradientUnits="userSpaceOnUse"><stop id="stop3413" offset="0" stop-color="#FFF"/><stop id="stop3415" offset=".06" stop-color="#FBC8B4"/><stop id="stop3417" offset=".07" stop-color="#FBC3B0"/><stop id="stop3419" offset=".18" stop-color="#F7978B"/><stop id="stop3421" offset=".3" stop-color="#F4716B"/><stop id="stop3423" offset=".42" stop-color="#F15251"/><stop id="stop3425" offset=".55" stop-color="#EF3A3D"/><stop id="stop3427" offset=".68" stop-color="#EE292F"/><stop id="stop3429" offset=".82" stop-color="#ED1F27"/><stop id="stop3431" offset="1" stop-color="#ED1C24"/></radialGradient><linearGradient id="SVGID_1_-4" x1="324.57" x2="427.23" y1="-144.04" y2="-261.37" gradientTransform="matrix(1 0 0 -1 -256 -90)" gradientUnits="userSpaceOnUse"><stop id="stop5690" offset="0" stop-color="#DED9D9"/><stop id="stop5692" offset="1" stop-color="#6A6363"/></linearGradient><radialGradient id="SVGID_2_" cx="351.82" cy="-188.48" r="175.05" gradientUnits="userSpaceOnUse" gradientTransform="matrix(1 0 0 -1 -256 -90)"><stop id="stop5707" offset=".08" stop-color="#8DDB92"/><stop id="stop5709" offset=".16" stop-color="#77CE7C"/><stop id="stop5711" offset=".34" stop-color="#3EAB45"/><stop id="stop5713" offset=".5" stop-color="#078A0F"/><stop id="stop5715" offset=".58" stop-color="#108C18"/><stop id="stop5717" offset=".71" stop-color="#28922F"/><stop id="stop5719" offset=".71" stop-color="#299230"/></radialGradient><radialGradient id="SVGID_3_" cx="386.73" cy="-214.62" r="116.24" gradientUnits="userSpaceOnUse" gradientTransform="matrix(1 0 0 -1 -256 -90)"><stop id="stop5730" offset=".62" stop-color="#F60000"/><stop id="stop5732" offset=".72" stop-color="#E70505"/><stop id="stop5734" offset=".92" stop-color="#C41212"/><stop id="stop5736" offset="1" stop-color="#DD7878"/></radialGradient><radialGradient id="SVGID_4_" cx="383.82" cy="-189.31" r="52.11" gradientUnits="userSpaceOnUse" gradientTransform="matrix(1 0 0 -1 -256 -90)"><stop id="stop5741" offset="0" stop-color="#B1DDF4"/><stop id="stop5743" offset=".07" stop-color="#A9D7F3"/><stop id="stop5745" offset=".19" stop-color="#93C7F1"/><stop id="stop5747" offset=".33" stop-color="#6EADEE"/><stop id="stop5749" offset=".4" stop-color="#5B9FEC"/><stop id="stop5751" offset=".53" stop-color="#0B85D1"/><stop id="stop5753" offset=".62" stop-color="#1375B3"/><stop id="stop5755" offset=".65" stop-color="#166FA8"/><stop id="stop5757" offset=".72" stop-color="#1E608B"/><stop id="stop5759" offset=".8" stop-color="#2B475C"/><stop id="stop5761" offset=".84" stop-color="#33383F"/><stop id="stop5763" offset="1" stop-color="#363233"/></radialGradient><linearGradient id="SVGID_5_" x1="287.08" x2="311.81" y1="-168.97" y2="-301.85" gradientTransform="matrix(1 0 0 -1 -256 -90)" gradientUnits="userSpaceOnUse"><stop id="stop5768" offset="0" stop-color="#FFF"/><stop id="stop5770" offset="1" stop-color="#FFF" stop-opacity=".53"/></linearGradient><linearGradient id="SVGID_6_" x1="303.57" x2="321.57" y1="-153.93" y2="-194.6" gradientTransform="matrix(1 0 0 -1 -256 -90)" gradientUnits="userSpaceOnUse"><stop id="stop5775" offset="0" stop-color="#FFF"/><stop id="stop5777" offset=".52" stop-color="#FFF" stop-opacity=".53"/></linearGradient><linearGradient id="SVGID_7_" x1="329.19" x2="329.19" y1="-367.65" y2="-263.65" gradientTransform="matrix(1 0 0 -1 -256 -90)" gradientUnits="userSpaceOnUse"><stop id="stop5782" offset="0" stop-color="#FFF"/><stop id="stop5784" offset="1" stop-color="#FFF" stop-opacity=".53"/></linearGradient><linearGradient id="SVGID_8_" x1="365.09" x2="436.27" y1="-116.29" y2="-153.54" gradientTransform="matrix(1 0 0 -1 -256 -90)" gradientUnits="userSpaceOnUse"><stop id="stop5793" offset="0" stop-color="#FFF" stop-opacity=".7"/><stop id="stop5795" offset="1" stop-color="#FFF" stop-opacity="0"/></linearGradient><linearGradient id="SVGID_9_" x1="279.06" x2="299.79" y1="-183.9" y2="-194.75" gradientTransform="matrix(1 0 0 -1 -256 -90)" gradientUnits="userSpaceOnUse"><stop id="stop5800" offset="0" stop-color="#FFF" stop-opacity=".7"/><stop id="stop5802" offset="1" stop-color="#FFF" stop-opacity="0"/></linearGradient><linearGradient id="SVGID_10_" x1="357.25" x2="356.91" y1="-164.5" y2="-217.65" gradientTransform="matrix(1 0 0 -1 -256 -90)" gradientUnits="userSpaceOnUse"><stop id="stop5807" offset="0" stop-color="#FFF" stop-opacity=".7"/><stop id="stop5809" offset="1" stop-color="#FFF" stop-opacity="0"/></linearGradient><linearGradient id="SVGID_11_" x1="360.13" x2="382" y1="-174.23" y2="-168.76" gradientTransform="matrix(1 0 0 -1 -256 -90)" gradientUnits="userSpaceOnUse"><stop id="stop5814" offset="0" stop-color="#FFF" stop-opacity=".7"/><stop id="stop5816" offset="1" stop-color="#FFF" stop-opacity="0"/></linearGradient><radialGradient id="SVGID_12_" cx="384.83" cy="-208.98" r="125.99" gradientUnits="userSpaceOnUse" gradientTransform="matrix(1 0 0 -1 -256 -90)"><stop id="stop5823" offset=".18" stop-color="#FFE650"/><stop id="stop5825" offset=".7" stop-color="#FFDB00"/><stop id="stop5827" offset="1" stop-color="#D5B319"/></radialGradient><linearGradient id="SVGID_13_" x1="428.92" x2="428.92" y1="-367.64" y2="-263.65" gradientTransform="matrix(1 0 0 -1 -256 -90)" gradientUnits="userSpaceOnUse"><stop id="stop5840" offset="0" stop-color="#FFF"/><stop id="stop5842" offset="1" stop-color="#FFF" stop-opacity=".53"/></linearGradient><linearGradient id="SVGID_14_" x1="341.97" x2="410.49" y1="-167.77" y2="-167.17" gradientTransform="matrix(1 0 0 -1 -256 -90)" gradientUnits="userSpaceOnUse"><stop id="stop5847" offset="0" stop-color="#29506B"/><stop id="stop5849" offset=".07" stop-color="#304D68"/><stop id="stop5851" offset=".16" stop-color="#424560"/><stop id="stop5853" offset=".28" stop-color="#613854"/><stop id="stop5855" offset=".3" stop-color="#673551"/><stop id="stop5857" offset=".55" stop-color="#4D7EBE"/><stop id="stop5859" offset=".75" stop-color="#633753"/><stop id="stop5861" offset="1" stop-color="#29506B"/></linearGradient><linearGradient id="SVGID_15_" x1="415.99" x2="402.32" y1="-229.4" y2="-172.39" gradientTransform="matrix(1 0 0 -1 -256 -90)" gradientUnits="userSpaceOnUse"><stop id="stop5868" offset="0" stop-color="#343539"/><stop id="stop5870" offset=".32" stop-color="#29506B"/><stop id="stop5872" offset="1" stop-color="#C7DD85"/></linearGradient><linearGradient id="SVGID_16_" x1="363.08" x2="363.62" y1="-235.29" y2="-212.67" gradientTransform="matrix(1 0 0 -1 -256 -90)" gradientUnits="userSpaceOnUse"><stop id="stop5877" offset="0" stop-color="#343539"/><stop id="stop5879" offset=".32" stop-color="#29506B"/><stop id="stop5881" offset="1" stop-color="#496D4E"/></linearGradient><linearGradient id="SVGID_17_" x1="492.7" x2="499.53" y1="-215.04" y2="-223.54" gradientTransform="matrix(1 0 0 -1 -256 -90)" gradientUnits="userSpaceOnUse"><stop id="stop5886" offset="0" stop-color="#F4DD80"/><stop id="stop5888" offset="1" stop-color="#F4DD80" stop-opacity=".3"/></linearGradient><linearGradient id="SVGID_18_" x1="491.78" x2="467.2" y1="-206.56" y2="-274.99" gradientTransform="matrix(1 0 0 -1 -256 -90)" gradientUnits="userSpaceOnUse"><stop id="stop5893" offset="0" stop-color="#F4DD80"/><stop id="stop5895" offset="1" stop-color="#F4DD80" stop-opacity=".3"/></linearGradient><linearGradient id="SVGID_19_" x1="440.09" x2="445.42" y1="-293" y2="-309.92" gradientTransform="matrix(1 0 0 -1 -256 -90)" gradientUnits="userSpaceOnUse"><stop id="stop5902" offset="0" stop-color="#F4DD80"/><stop id="stop5904" offset="1" stop-color="#F4DD80" stop-opacity=".3"/></linearGradient><linearGradient id="SVGID_20_" x1="414.53" x2="426.15" y1="-303.73" y2="-323.94" gradientTransform="matrix(1 0 0 -1 -256 -90)" gradientUnits="userSpaceOnUse"><stop id="stop5909" offset="0" stop-color="#F4DD80"/><stop id="stop5911" offset="1" stop-color="#F4DD80" stop-opacity=".3"/></linearGradient><radialGradient id="radialGradient4986" cx="247.71" cy="1161.09" r="14.65" xlink:href="#linearGradient2168" gradientUnits="userSpaceOnUse" gradientTransform="matrix(.28925 -.07773 .03112 .1158 61.603 115.354)" fy="1161.42" fx="247.71"/><linearGradient id="linearGradient2168"><stop id="stop2170" offset="0"/><stop id="stop2174" offset="1" stop-opacity="0"/></linearGradient><linearGradient id="linearGradient4989" x1="423.76" x2="448.12" y1="614.4" y2="654.13" xlink:href="#linearGradient2201" spreadMethod="reflect" gradientUnits="userSpaceOnUse" gradientTransform="matrix(-.18445 .09464 .14004 .27292 165.096 19.365)"/><linearGradient id="linearGradient2201"><stop id="stop2203" offset="0" stop-color="#525252"/><stop id="stop2205" offset="1" stop-color="#D9D9D9"/></linearGradient><linearGradient id="linearGradient4992" x1="370.79" x2="381.53" y1="747.38" y2="754.63" xlink:href="#linearGradient2168" spreadMethod="reflect" gradientUnits="userSpaceOnUse" gradientTransform="matrix(.18584 -.04994 .04844 .18026 61.603 115.354)"/><linearGradient id="linearGradient5070" x1="469.01" x2="491.66" y1="838.2" y2="843.22" xlink:href="#linearGradient2201" spreadMethod="reflect" gradientUnits="userSpaceOnUse" gradientTransform="matrix(.8099 -.08088 .1221 1.22254 1.68 116.44)"/><linearGradient id="linearGradient5072" x1="432.33" x2="442.94" y1="816.66" y2="835.01" xlink:href="#linearGradient2168" gradientUnits="userSpaceOnUse" gradientTransform="matrix(.8099 -.08088 .1221 1.22254 1.68 116.44)"/><linearGradient id="linearGradient5001" x1="608.27" x2="572.03" y1="588.05" y2="590.56" xlink:href="#linearGradient2201" spreadMethod="reflect" gradientUnits="userSpaceOnUse" gradientTransform="matrix(-.1463 .07084 .17053 .35215 170.5 19.373)"/><radialGradient id="radialGradient5004" cx="370.71" cy="771.55" r="27.48" xlink:href="#linearGradient2201" gradientUnits="userSpaceOnUse" gradientTransform="matrix(.18584 -.04994 .04844 .18026 61.308 114.255)" fy="771.55" fx="370.71"/><radialGradient id="radialGradient5007" cx="378.57" cy="752.36" r="8.57" xlink:href="#linearGradient2077" gradientUnits="userSpaceOnUse" gradientTransform="matrix(.07734 -.05446 .10912 .15496 57.43 136.833)" fy="752.36" fx="378.57"/><linearGradient id="linearGradient2077"><stop id="stop2079" offset="0" stop-color="#FFF"/><stop id="stop2081" offset="1" stop-color="#FFF" stop-opacity="0"/></linearGradient><radialGradient id="radialGradient5010" cx="214.76" cy="1378.8" r="15.41" xlink:href="#linearGradient2077" gradientUnits="userSpaceOnUse" gradientTransform="matrix(.2688 -.07224 .02092 .07783 87.488 144.078)" fy="1378.8" fx="214.76"/><linearGradient id="linearGradient5013" x1="293.24" x2="310.45" y1="923.83" y2="927.12" xlink:href="#linearGradient2168" gradientUnits="userSpaceOnUse" gradientTransform="matrix(.22312 -.05996 .04035 .15013 65.048 113.64)"/><linearGradient id="linearGradient5016" x1="293.05" x2="311.93" y1="901.66" y2="937.79" xlink:href="#linearGradient2168" gradientUnits="userSpaceOnUse" gradientTransform="matrix(.22312 -.05996 .04035 .15013 65.048 113.64)"/><linearGradient id="linearGradient5019" x1="299.34" x2="301.38" y1="959.69" y2="945.18" xlink:href="#linearGradient2168" gradientUnits="userSpaceOnUse" gradientTransform="matrix(.22312 -.05996 .04035 .15013 65.048 113.64)"/><linearGradient id="linearGradient5022" x1="309.16" x2="302.31" y1="900.84" y2="958.59" xlink:href="#linearGradient4902" gradientUnits="userSpaceOnUse" gradientTransform="matrix(.22312 -.05996 .04035 .15013 65.048 113.64)"/><linearGradient id="linearGradient4902"><stop id="stop4904" offset="0" stop-color="#FF6134"/><stop id="stop4906" offset="1" stop-color="#F00"/></linearGradient><radialGradient id="radialGradient5025" cx="269.79" cy="1031.84" r="32.83" xlink:href="#linearGradient2168" gradientUnits="userSpaceOnUse" gradientTransform="matrix(.23348 -.1031 .04198 .08126 63.494 174.575)" fy="1031.84" fx="269.79"/><radialGradient id="radialGradient5028" cx="413.89" cy="440.37" r="359.53" xlink:href="#linearGradient4884" gradientUnits="userSpaceOnUse" gradientTransform="matrix(.16665 -.08698 .11995 .2298 23.582 113.86)" fy="440.37" fx="413.89"/><linearGradient id="linearGradient4884"><stop id="stop4886" offset="0" stop-color="#F00" stop-opacity="0"/><stop id="stop4888" offset=".5" stop-color="#F00" stop-opacity="0"/><stop id="stop4890" offset=".75" stop-color="#A60000" stop-opacity="0"/><stop id="stop4892" offset="1" stop-color="#540000"/></linearGradient><radialGradient id="radialGradient5034" cx="480.13" cy="516.87" r="175.44" xlink:href="#linearGradient2077" gradientUnits="userSpaceOnUse" gradientTransform="matrix(.063 -.07094 .09452 .08393 71.293 194.635)" fy="516.87" fx="480.13"/><radialGradient id="radialGradient5037" cx="480.13" cy="516.87" r="175.44" xlink:href="#linearGradient2077" gradientUnits="userSpaceOnUse" gradientTransform="matrix(.1057 -.11903 .1687 .14982 2.064 174.56)" fy="516.87" fx="480.13"/><radialGradient id="radialGradient5043" cx="457.14" cy="263.79" r="94.29" xlink:href="#linearGradient2077" gradientUnits="userSpaceOnUse" gradientTransform="rotate(-28 248.92 47.337) scale(.22972)" fy="263.79" fx="457.14"/><radialGradient id="radialGradient5046" cx="457.14" cy="263.79" r="94.29" xlink:href="#linearGradient2077" gradientUnits="userSpaceOnUse" gradientTransform="rotate(-28 295.076 -111.498) scale(.0804)" fy="263.79" fx="457.14"/><radialGradient id="radialGradient5052" cx="478.66" cy="290.04" r="372.49" xlink:href="#linearGradient4894" gradientUnits="userSpaceOnUse" gradientTransform="matrix(.16665 -.08698 .11995 .2298 23.582 113.86)" fy="290.04" fx="478.66"/><linearGradient id="linearGradient4894"><stop id="stop4896" offset="0" stop-color="#5F0000" stop-opacity="0"/><stop id="stop4898" offset=".5" stop-color="#F00" stop-opacity="0"/><stop id="stop4900" offset="1" stop-color="#590000"/></linearGradient><radialGradient id="radialGradient5055" cx="462.46" cy="233.67" r="330.33" xlink:href="#linearGradient4902" gradientUnits="userSpaceOnUse" gradientTransform="matrix(.16665 -.08698 .11995 .2298 23.582 113.86)" fy="233.67" fx="462.46"/><linearGradient id="linearGradient5058" x1="1062.97" x2="1074.98" y1="281.09" y2="396.2" xlink:href="#linearGradient2201" gradientUnits="userSpaceOnUse" gradientTransform="matrix(.14003 -.03763 .28066 1.04435 -52.52 -16.338)"/><radialGradient id="radialGradient4082" cx="457.14" cy="263.79" r="94.29" gradientTransform="rotate(-13 539.27 -1103.987) scale(.42424)" fy="263.79" fx="457.14" gradientUnits="userSpaceOnUse" xlink:href="#linearGradient2077"/><radialGradient id="radialGradient5111" cx="247.71" cy="1161.09" r="14.65" xlink:href="#linearGradient2168" gradientUnits="userSpaceOnUse" gradientTransform="matrix(.95713 .39873 -.15964 .38322 630.284 -364.877)" fy="1161.42" fx="247.71"/><linearGradient id="linearGradient5114" x1="423.76" x2="448.12" y1="614.4" y2="654.13" xlink:href="#linearGradient2201" spreadMethod="reflect" gradientUnits="userSpaceOnUse" gradientTransform="matrix(.4979 .20742 -.3069 .7367 631.798 -368.51)"/><linearGradient id="linearGradient5117" x1="370.79" x2="381.53" y1="747.38" y2="754.63" xlink:href="#linearGradient2168" spreadMethod="reflect" gradientUnits="userSpaceOnUse" gradientTransform="matrix(.61494 .25618 -.24848 .59647 630.284 -364.877)"/><linearGradient id="linearGradient5120" x1="432.33" x2="442.94" y1="816.66" y2="835.01" xlink:href="#linearGradient2168" gradientUnits="userSpaceOnUse" gradientTransform="matrix(.49294 .20535 -.30998 .7441 631.798 -368.51)"/><linearGradient id="linearGradient5123" x1="469.01" x2="491.66" y1="838.2" y2="843.22" xlink:href="#linearGradient2201" spreadMethod="reflect" gradientUnits="userSpaceOnUse" gradientTransform="matrix(.49294 .20535 -.30998 .7441 631.798 -368.51)"/><linearGradient id="linearGradient5126" x1="608.27" x2="572.03" y1="588.05" y2="590.56" xlink:href="#linearGradient2201" spreadMethod="reflect" gradientUnits="userSpaceOnUse" gradientTransform="matrix(.39034 .1626 -.39146 .93966 631.798 -368.51)"/><radialGradient id="radialGradient5129" cx="370.71" cy="771.55" r="27.48" xlink:href="#linearGradient2201" gradientUnits="userSpaceOnUse" gradientTransform="matrix(.61494 .25618 -.24848 .59647 631.798 -368.51)" fy="771.55" fx="370.71"/><radialGradient id="radialGradient5132" cx="378.57" cy="752.36" r="8.57" xlink:href="#linearGradient2077" gradientUnits="userSpaceOnUse" gradientTransform="matrix(.32716 .01432 -.0287 .65546 573.416 -314.84)" fy="752.36" fx="378.57"/><radialGradient id="radialGradient5135" cx="214.76" cy="1378.8" r="15.41" xlink:href="#linearGradient2077" gradientUnits="userSpaceOnUse" gradientTransform="matrix(.88945 .37054 -.1073 .25755 628.92 -237.634)" fy="1378.8" fx="214.76"/><linearGradient id="linearGradient5138" x1="293.24" x2="310.45" y1="923.83" y2="927.12" xlink:href="#linearGradient2168" gradientUnits="userSpaceOnUse" gradientTransform="matrix(.73832 .30758 -.20696 .4968 631.798 -368.51)"/><linearGradient id="linearGradient5141" x1="293.05" x2="311.93" y1="901.66" y2="937.79" xlink:href="#linearGradient2168" gradientUnits="userSpaceOnUse" gradientTransform="matrix(.73832 .30758 -.20696 .4968 631.798 -368.51)"/><linearGradient id="linearGradient5144" x1="299.34" x2="301.38" y1="959.69" y2="945.18" xlink:href="#linearGradient2168" gradientUnits="userSpaceOnUse" gradientTransform="matrix(.73832 .30758 -.20696 .4968 631.798 -368.51)"/><linearGradient id="linearGradient5147" x1="309.16" x2="302.31" y1="900.84" y2="958.59" xlink:href="#linearGradient3483" gradientUnits="userSpaceOnUse" gradientTransform="matrix(.73832 .30758 -.20696 .4968 631.798 -368.51)"/><linearGradient id="linearGradient3483"><stop id="stop3485-6" offset="0" stop-color="#FFFF34"/><stop id="stop3487-6" offset="1" stop-color="#FFC200"/></linearGradient><radialGradient id="radialGradient5150" cx="269.79" cy="1031.84" r="32.83" xlink:href="#linearGradient2168" gradientUnits="userSpaceOnUse" gradientTransform="matrix(.8579 .21128 -.05684 .3115 498.662 -204.803)" fy="1031.84" fx="269.79"/><radialGradient id="radialGradient5153" cx="413.89" cy="440.37" r="359.53" xlink:href="#linearGradient3453" gradientUnits="userSpaceOnUse" gradientTransform="matrix(.6407 .11408 -.1573 .8835 517.69 -455.612)" fy="440.37" fx="413.89"/><linearGradient id="linearGradient3453"><stop id="stop3455" offset="0" stop-color="#FFDF00" stop-opacity="0"/><stop id="stop3457" offset=".5" stop-color="#FF9F00" stop-opacity="0"/><stop id="stop3459" offset=".75" stop-color="#FF9A00" stop-opacity="0"/><stop id="stop3461" offset="1" stop-color="#793900"/></linearGradient><radialGradient id="radialGradient5159" cx="480.13" cy="516.87" r="175.44" xlink:href="#linearGradient2077" gradientUnits="userSpaceOnUse" gradientTransform="matrix(.32268 -.06118 .08152 .42994 477.607 -133.33)" fy="516.87" fx="480.13"/><radialGradient id="radialGradient5162" cx="480.13" cy="516.87" r="175.44" xlink:href="#linearGradient2077" gradientUnits="userSpaceOnUse" gradientTransform="matrix(.54143 -.10266 .1455 .76742 330.337 -334.766)" fy="516.87" fx="480.13"/><radialGradient id="radialGradient5168" cx="457.14" cy="263.79" r="94.29" xlink:href="#linearGradient2077" gradientUnits="userSpaceOnUse" gradientTransform="rotate(10 2909.562 2345.97) scale(.79525)" fy="263.79" fx="457.14"/><radialGradient id="radialGradient5171" cx="457.14" cy="263.79" r="94.29" xlink:href="#linearGradient2077" gradientUnits="userSpaceOnUse" gradientTransform="rotate(10 2019.69 3615.302) scale(.27834)" fy="263.79" fx="457.14"/><radialGradient id="radialGradient5177" cx="478.66" cy="290.04" r="372.49" xlink:href="#linearGradient3475" gradientUnits="userSpaceOnUse" gradientTransform="matrix(.6407 .11408 -.1573 .8835 517.69 -455.612)" fy="290.04" fx="478.66"/><linearGradient id="linearGradient3475"><stop id="stop3477-1" offset="0" stop-color="#5A5F00" stop-opacity="0"/><stop id="stop3479-2" offset=".5" stop-color="#FFDE00" stop-opacity="0"/><stop id="stop3481-6" offset="1" stop-color="#CF9800"/></linearGradient><radialGradient id="radialGradient5180" cx="462.46" cy="233.67" r="330.33" xlink:href="#linearGradient3483" gradientUnits="userSpaceOnUse" gradientTransform="matrix(.6407 .11408 -.1573 .8835 517.69 -455.612)" fy="233.67" fx="462.46"/><linearGradient id="linearGradient5183" x1="1062.97" x2="1074.98" y1="281.09" y2="396.2" xlink:href="#linearGradient2201" gradientUnits="userSpaceOnUse" gradientTransform="matrix(.22177 .0924 -.689 1.65393 631.798 -368.51)"/><radialGradient id="radialGradient4070-0" cx="480.13" cy="516.87" r="175.44" fy="516.87" fx="480.13" gradientTransform="matrix(.41814 -.27522 .3667 .55713 84.993 432.28)" gradientUnits="userSpaceOnUse" xlink:href="#linearGradient2077"/><radialGradient id="radialGradient9551-3" cx="413.89" cy="440.37" r="359.53" fy="440.37" fx="413.89" gradientTransform="matrix(.16496 .0993 -.13644 .22828 549.09 37.948)" gradientUnits="userSpaceOnUse" xlink:href="#linearGradient3453"/><radialGradient id="radialGradient9554-1" cx="480.13" cy="516.87" r="175.44" fy="516.87" fx="480.13" gradientTransform="matrix(.09557 .01712 -.02273 .12778 504.098 123.047)" gradientUnits="userSpaceOnUse" xlink:href="#linearGradient2077"/><radialGradient id="radialGradient9557-6" cx="480.13" cy="516.87" r="175.44" fy="516.87" fx="480.13" gradientTransform="matrix(.16036 .02873 -.04058 .2281 484.62 51.657)" gradientUnits="userSpaceOnUse" xlink:href="#linearGradient2077"/><radialGradient id="radialGradient9560-8" cx="457.14" cy="263.79" r="94.29" fy="263.79" fx="457.14" gradientTransform="matrix(.2016 .12134 -.1209 .2023 534.038 26.443)" gradientUnits="userSpaceOnUse" xlink:href="#linearGradient2077"/><radialGradient id="radialGradient9563-6" cx="457.14" cy="263.79" r="94.29" fy="263.79" fx="457.14" gradientTransform="matrix(.07056 .04247 -.04232 .0708 573.207 97.183)" gradientUnits="userSpaceOnUse" xlink:href="#linearGradient2077"/><radialGradient id="radialGradient9566-4" cx="478.66" cy="290.04" r="372.49" fy="290.04" fx="478.66" gradientTransform="matrix(.16496 .0993 -.13644 .22828 549.09 37.948)" gradientUnits="userSpaceOnUse" xlink:href="#linearGradient3475"/><radialGradient id="radialGradient9569-2" cx="462.46" cy="233.67" r="330.33" fy="233.67" fx="462.46" gradientTransform="matrix(.16496 .0993 -.13644 .22828 549.09 37.948)" gradientUnits="userSpaceOnUse" xlink:href="#linearGradient3483"/><radialGradient id="radialGradient9575-2" cx="480.13" cy="516.87" r="175.44" fy="516.87" fx="480.13" gradientTransform="matrix(.10475 -.0232 .03093 .13957 439.208 108.65)" gradientUnits="userSpaceOnUse" xlink:href="#linearGradient2077"/><radialGradient id="radialGradient9509-0" cx="247.71" cy="1161.09" r="14.65" fy="1161.42" fx="247.71" gradientTransform="matrix(.2224 .21162 -.08443 .08936 570.64 74.99)" gradientUnits="userSpaceOnUse" xlink:href="#linearGradient2168"/><linearGradient id="linearGradient9512-8" x1="423.76" x2="448.12" y1="614.4" y2="654.13" spreadMethod="reflect" gradientTransform="matrix(.1157 .11008 -.1623 .1718 571.44 74.143)" gradientUnits="userSpaceOnUse" xlink:href="#linearGradient2201"/><linearGradient id="linearGradient9515-6" x1="370.79" x2="381.53" y1="747.38" y2="754.63" spreadMethod="reflect" gradientTransform="matrix(.1429 .13596 -.1314 .1391 570.64 74.99)" gradientUnits="userSpaceOnUse" xlink:href="#linearGradient2168"/><linearGradient id="linearGradient9518-2" x1="432.33" x2="442.94" y1="816.66" y2="835.01" gradientTransform="matrix(.11454 .109 -.16394 .1735 571.44 74.143)" gradientUnits="userSpaceOnUse" xlink:href="#linearGradient2168"/><linearGradient id="linearGradient9521-8" x1="469.01" x2="491.66" y1="838.2" y2="843.22" spreadMethod="reflect" gradientTransform="matrix(.11454 .109 -.16394 .1735 571.44 74.143)" gradientUnits="userSpaceOnUse" xlink:href="#linearGradient2201"/><linearGradient id="linearGradient9524-1" x1="608.27" x2="572.03" y1="588.05" y2="590.56" spreadMethod="reflect" gradientTransform="matrix(.0907 .0863 -.20703 .21912 571.44 74.143)" gradientUnits="userSpaceOnUse" xlink:href="#linearGradient2201"/><radialGradient id="radialGradient9527-0" cx="370.71" cy="771.55" r="27.48" fy="771.55" fx="370.71" gradientTransform="matrix(.1429 .13596 -.1314 .1391 571.44 74.143)" gradientUnits="userSpaceOnUse" xlink:href="#linearGradient2201"/><radialGradient id="radialGradient9530-2" cx="378.57" cy="752.36" r="8.57" fy="752.36" fx="378.57" gradientTransform="matrix(.08886 .03852 -.0769 .17865 549.666 82.854)" gradientUnits="userSpaceOnUse" xlink:href="#linearGradient2077"/><radialGradient id="radialGradient9533-4" cx="214.76" cy="1378.8" r="15.41" fy="1378.8" fx="214.76" gradientTransform="matrix(.20668 .19665 -.05674 .06006 556.87 110.117)" gradientUnits="userSpaceOnUse" xlink:href="#linearGradient2077"/><linearGradient id="linearGradient9536-7" x1="293.24" x2="310.45" y1="923.83" y2="927.12" gradientTransform="matrix(.17156 .16324 -.10945 .11585 571.44 74.143)" gradientUnits="userSpaceOnUse" xlink:href="#linearGradient2168"/><linearGradient id="linearGradient9539-3" x1="293.05" x2="311.93" y1="901.66" y2="937.79" gradientTransform="matrix(.17156 .16324 -.10945 .11585 571.44 74.143)" gradientUnits="userSpaceOnUse" xlink:href="#linearGradient2168"/><linearGradient id="linearGradient9542-8" x1="299.34" x2="301.38" y1="959.69" y2="945.18" gradientTransform="matrix(.17156 .16324 -.10945 .11585 571.44 74.143)" gradientUnits="userSpaceOnUse" xlink:href="#linearGradient2168"/><linearGradient id="linearGradient9545-3" x1="309.16" x2="302.31" y1="900.84" y2="958.59" gradientTransform="matrix(.17156 .16324 -.10945 .11585 571.44 74.143)" gradientUnits="userSpaceOnUse" xlink:href="#linearGradient3483"/><radialGradient id="radialGradient9548-1" cx="269.79" cy="1031.84" r="32.83" fy="1031.84" fx="269.79" gradientTransform="matrix(.21473 .14918 -.04848 .08034 517.436 105.46)" gradientUnits="userSpaceOnUse" xlink:href="#linearGradient2168"/><linearGradient id="linearGradient9572-4" x1="1062.97" x2="1074.98" y1="281.09" y2="396.2" gradientTransform="matrix(.0902 .08408 -.63787 .66136 606.565 -37.578)" gradientUnits="userSpaceOnUse" xlink:href="#linearGradient2201"/><radialGradient id="SVGID_2_-8" cx="351.82" cy="-188.48" r="175.05" gradientUnits="userSpaceOnUse" gradientTransform="matrix(1 0 0 -1 -256 -90)"><stop id="stop5707-3" offset=".08" stop-color="#8DDB92"/><stop id="stop5709-9" offset=".16" stop-color="#77CE7C"/><stop id="stop5711-7" offset=".34" stop-color="#3EAB45"/><stop id="stop5713-2" offset=".5" stop-color="#078A0F"/><stop id="stop5715-8" offset=".58" stop-color="#108C18"/><stop id="stop5717-7" offset=".71" stop-color="#28922F"/><stop id="stop5719-7" offset=".71" stop-color="#299230"/></radialGradient><radialGradient id="SVGID_3_-3" cx="386.73" cy="-214.62" r="116.24" gradientUnits="userSpaceOnUse" gradientTransform="matrix(1 0 0 -1 -256 -90)"><stop id="stop5730-0" offset=".62" stop-color="#F60000"/><stop id="stop5732-1" offset=".72" stop-color="#E70505"/><stop id="stop5734-1" offset=".92" stop-color="#C41212"/><stop id="stop5736-8" offset="1" stop-color="#DD7878"/></radialGradient><radialGradient id="SVGID_4_-1" cx="383.82" cy="-189.31" r="52.11" gradientUnits="userSpaceOnUse" gradientTransform="matrix(1 0 0 -1 -256 -90)"><stop id="stop5741-8" offset="0" stop-color="#B1DDF4"/><stop id="stop5743-5" offset=".07" stop-color="#A9D7F3"/><stop id="stop5745-3" offset=".19" stop-color="#93C7F1"/><stop id="stop5747-5" offset=".33" stop-color="#6EADEE"/><stop id="stop5749-9" offset=".4" stop-color="#5B9FEC"/><stop id="stop5751-3" offset=".53" stop-color="#0B85D1"/><stop id="stop5753-0" offset=".62" stop-color="#1375B3"/><stop id="stop5755-1" offset=".65" stop-color="#166FA8"/><stop id="stop5757-2" offset=".72" stop-color="#1E608B"/><stop id="stop5759-1" offset=".8" stop-color="#2B475C"/><stop id="stop5761-4" offset=".84" stop-color="#33383F"/><stop id="stop5763-7" offset="1" stop-color="#363233"/></radialGradient><radialGradient id="SVGID_12_-7" cx="384.83" cy="-208.98" r="125.99" gradientUnits="userSpaceOnUse" gradientTransform="matrix(1 0 0 -1 -256 -90)"><stop id="stop5823-3" offset=".18" stop-color="#FFE650"/><stop id="stop5825-3" offset=".7" stop-color="#FFDB00"/><stop id="stop5827-0" offset="1" stop-color="#D5B319"/></radialGradient><radialGradient id="radialGradient11250" cx="247.71" cy="1161.09" r="14.65" fy="1161.42" fx="247.71" gradientTransform="matrix(.28925 -.07773 .03112 .1158 61.603 115.354)" gradientUnits="userSpaceOnUse" xlink:href="#linearGradient2168"/><radialGradient id="radialGradient11265" cx="370.71" cy="771.55" r="27.48" fy="771.55" fx="370.71" gradientTransform="matrix(.18584 -.04994 .04844 .18026 61.308 114.255)" gradientUnits="userSpaceOnUse" xlink:href="#linearGradient2201"/><radialGradient id="radialGradient11268" cx="378.57" cy="752.36" r="8.57" fy="752.36" fx="378.57" gradientTransform="matrix(.07734 -.05446 .10912 .15496 57.43 136.833)" gradientUnits="userSpaceOnUse" xlink:href="#linearGradient2077"/><radialGradient id="radialGradient11271" cx="214.76" cy="1378.8" r="15.41" fy="1378.8" fx="214.76" gradientTransform="matrix(.2688 -.07224 .02092 .07783 87.488 144.078)" gradientUnits="userSpaceOnUse" xlink:href="#linearGradient2077"/><radialGradient id="radialGradient11286" cx="269.79" cy="1031.84" r="32.83" fy="1031.84" fx="269.79" gradientTransform="matrix(.23348 -.1031 .04198 .08126 63.494 174.575)" gradientUnits="userSpaceOnUse" xlink:href="#linearGradient2168"/><radialGradient id="radialGradient11289" cx="413.89" cy="440.37" r="359.53" fy="440.37" fx="413.89" gradientTransform="matrix(.16665 -.08698 .11995 .2298 23.582 113.86)" gradientUnits="userSpaceOnUse" xlink:href="#linearGradient4884"/><radialGradient id="radialGradient11292" cx="480.13" cy="516.87" r="175.44" fy="516.87" fx="480.13" gradientTransform="matrix(.063 -.07094 .09452 .08393 71.293 194.635)" gradientUnits="userSpaceOnUse" xlink:href="#linearGradient2077"/><radialGradient id="radialGradient11295" cx="480.13" cy="516.87" r="175.44" fy="516.87" fx="480.13" gradientTransform="matrix(.1057 -.11903 .1687 .14982 2.064 174.56)" gradientUnits="userSpaceOnUse" xlink:href="#linearGradient2077"/><radialGradient id="radialGradient11298" cx="457.14" cy="263.79" r="94.29" fy="263.79" fx="457.14" gradientTransform="rotate(-28 248.92 47.337) scale(.22972)" gradientUnits="userSpaceOnUse" xlink:href="#linearGradient2077"/><radialGradient id="radialGradient11301" cx="457.14" cy="263.79" r="94.29" fy="263.79" fx="457.14" gradientTransform="rotate(-28 295.076 -111.498) scale(.0804)" gradientUnits="userSpaceOnUse" xlink:href="#linearGradient2077"/><radialGradient id="radialGradient11304" cx="478.66" cy="290.04" r="372.49" fy="290.04" fx="478.66" gradientTransform="matrix(.16665 -.08698 .11995 .2298 23.582 113.86)" gradientUnits="userSpaceOnUse" xlink:href="#linearGradient4894"/><radialGradient id="radialGradient11307" cx="462.46" cy="233.67" r="330.33" fy="233.67" fx="462.46" gradientTransform="matrix(.16665 -.08698 .11995 .2298 23.582 113.86)" gradientUnits="userSpaceOnUse" xlink:href="#linearGradient4902"/><radialGradient id="radialGradient11313" cx="480.13" cy="516.87" r="175.44" fy="516.87" fx="480.13" gradientTransform="matrix(.06973 -.06433 .0857 .0929 90.342 170.142)" gradientUnits="userSpaceOnUse" xlink:href="#linearGradient2077"/><radialGradient id="radialGradient11316" cx="480.13" cy="516.87" r="175.44" fy="516.87" fx="480.13" gradientTransform="matrix(.117 -.10794 .153 .16584 23.45 143.288)" gradientUnits="userSpaceOnUse" xlink:href="#linearGradient2077"/><linearGradient id="linearGradient11448" x1="423.76" x2="448.12" y1="614.4" y2="654.13" spreadMethod="reflect" gradientTransform="matrix(-.20323 .04093 -.06057 -.30072 289.087 404.263)" gradientUnits="userSpaceOnUse" xlink:href="#linearGradient2201"/><linearGradient id="linearGradient11454" x1="608.27" x2="572.03" y1="588.05" y2="590.56" spreadMethod="reflect" gradientTransform="matrix(-.16102 -.02216 -.05334 .38762 282.305 41.18)" gradientUnits="userSpaceOnUse" xlink:href="#linearGradient2201"/><filter id="filter4642" width="1" height="1" x="0" y="0" color-interpolation-filters="sRGB"><feColorMatrix id="feColorMatrix4644" result="result2" type="saturate" in="SourceGraphic" values="1"/><feFlood id="feFlood4646" result="result1" flood-opacity="1" flood-color="#FE6600"/><feBlend id="feBlend4648" result="result3" in="result1" mode="multiply" in2="result2"/><feComposite id="feComposite4650" result="fbSourceGraphic" operator="in" in2="SourceGraphic"/><feColorMatrix id="feColorMatrix4806" values="0 0 0 -1 0 0 0 0 -1 0 0 0 0 -1 0 0 0 0 1 0" in="fbSourceGraphic" result="fbSourceGraphicAlpha"/><feColorMatrix id="feColorMatrix4808" in="fbSourceGraphic" values="0" type="saturate"/></filter><radialGradient id="radialGradient3850" cx="86.63" cy="167.07" r="54.72" gradientUnits="userSpaceOnUse"><stop id="stop3852" offset="0" stop-color="#FFF"/><stop id="stop3854" offset=".06" stop-color="#FBC8B4"/><stop id="stop3856" offset=".07" stop-color="#FBC3B0"/><stop id="stop3858" offset=".18" stop-color="#F7978B"/><stop id="stop3860" offset=".3" stop-color="#F4716B"/><stop id="stop3862" offset=".42" stop-color="#F15251"/><stop id="stop3864" offset=".55" stop-color="#EF3A3D"/><stop id="stop3866" offset=".68" stop-color="#EE292F"/><stop id="stop3868" offset=".82" stop-color="#ED1F27"/><stop id="stop3870" offset="1" stop-color="#ED1C24"/></radialGradient><radialGradient id="radialGradient4838" cx="86.63" cy="167.07" r="54.72" gradientUnits="userSpaceOnUse"><stop id="stop4840" offset="0" stop-color="#FFF"/><stop id="stop4842" offset=".06" stop-color="#FBC8B4"/><stop id="stop4844" offset=".07" stop-color="#FBC3B0"/><stop id="stop4846" offset=".18" stop-color="#F7978B"/><stop id="stop4848" offset=".3" stop-color="#F4716B"/><stop id="stop4850" offset=".42" stop-color="#F15251"/><stop id="stop4852" offset=".55" stop-color="#EF3A3D"/><stop id="stop4854" offset=".68" stop-color="#EE292F"/><stop id="stop4856" offset=".82" stop-color="#ED1F27"/><stop id="stop4858" offset="1" stop-color="#ED1C24"/></radialGradient><radialGradient id="radialGradient4902" cx="86.63" cy="167.07" r="54.72" gradientUnits="userSpaceOnUse"><stop id="stop4905" offset="0" stop-color="#FFF"/><stop id="stop4907" offset=".06" stop-color="#FBC8B4"/><stop id="stop4909" offset=".07" stop-color="#FBC3B0"/><stop id="stop4911" offset=".18" stop-color="#F7978B"/><stop id="stop4913" offset=".3" stop-color="#F4716B"/><stop id="stop4915" offset=".42" stop-color="#F15251"/><stop id="stop4917" offset=".55" stop-color="#EF3A3D"/><stop id="stop4919" offset=".68" stop-color="#EE292F"/><stop id="stop4921" offset=".82" stop-color="#ED1F27"/><stop id="stop4923" offset="1" stop-color="#ED1C24"/></radialGradient><radialGradient id="radialGradient9190" cx="86.63" cy="167.07" r="54.72" gradientUnits="userSpaceOnUse" xlink:href="#SVGID_1_"/></defs><style id="style3795">.st0{fill:none;} .st1{fill:#FFC107;} .st2{fill:#0F9D58;} .st3{opacity:0.2;fill:#BF360C;enable-background:new ;} .st4{opacity:0.2;fill:#263238;enable-background:new ;} .st5{opacity:0.2;fill:#FFFFFF;enable-background:new ;} .st6{fill:url(#XMLID_2_);} .st7{fill:url(#XMLID_3_);} .st8{fill:#4285F4;} .st9{fill:#DB4437;} .st10{opacity:0.2;fill:#1A237E;enable-background:new ;} .st11{opacity:0.2;fill:#3E2723;enable-background:new ;} .st12{fill:url(#XMLID_4_);} .st13{fill:#FFFFFF;}</style><g id="XMLID_7_"><path id="path3843" fill="#fff" d="M186.15 28.3c0 7-2.1 12.6-6.2 16.7-4.7 4.9-10.9 7.4-18.4 7.4-7.2 0-13.4-2.5-18.4-7.5-5.1-5-7.6-11.2-7.6-18.7s2.5-13.6 7.6-18.7c5.1-5 11.2-7.5 18.4-7.5 3.6 0 7 .7 10.3 2.1 3.3 1.4 5.9 3.3 7.8 5.6l-4.4 4.4c-3.3-4-7.9-6-13.7-6-5.3 0-9.8 1.9-13.7 5.6-3.8 3.7-5.8 8.5-5.8 14.5 0 5.9 1.9 10.7 5.8 14.5 3.9 3.7 8.4 5.6 13.7 5.6 5.6 0 10.3-1.9 14-5.6 2.4-2.4 3.8-5.8 4.2-10.1h-18.2v-6h24.3c.2 1.2.3 2.5.3 3.7zm6.4 23V1.2h15.3c7.7 0 13.9 2.3 18.5 7 4.6 4.6 6.9 10.7 6.9 18.1 0 7.4-2.3 13.5-6.9 18.1-4.6 4.6-10.8 7-18.5 7h-15.3zm6.4-6.2h8.9c5.8 0 10.4-1.7 13.8-5 3.4-3.3 5.1-8 5.1-13.9s-1.7-10.6-5.1-13.9c-3.4-3.3-8-5-13.8-5h-8.9zm89-16.8c0 7-2.1 12.6-6.2 16.7-4.7 4.9-10.9 7.4-18.4 7.4-7.2 0-13.4-2.5-18.4-7.5-5.1-5-7.6-11.2-7.6-18.7s2.5-13.6 7.6-18.7c5.1-5 11.2-7.5 18.4-7.5 3.6 0 7 .7 10.3 2.1 3.3 1.4 5.9 3.3 7.8 5.6l-4.4 4.4c-3.3-4-7.9-6-13.7-6-5.3 0-9.8 1.9-13.7 5.6-3.8 3.7-5.8 8.5-5.8 14.5 0 5.9 1.9 10.7 5.8 14.5 3.9 3.7 8.4 5.6 13.7 5.6 5.6 0 10.3-1.9 14-5.6 2.4-2.4 3.8-5.8 4.2-10.1h-18.2v-6h24.3c.2 1.2.3 2.5.3 3.7zm23.2 23V1.2h15.3c7.7 0 13.9 2.3 18.5 7 4.6 4.6 6.9 10.7 6.9 18.1 0 7.4-2.3 13.5-6.9 18.1-4.6 4.6-10.8 7-18.5 7h-15.3zm6.5-6.2h8.9c5.8 0 10.4-1.7 13.8-5 3.4-3.3 5.1-8 5.1-13.9s-1.7-10.6-5.1-13.9c-3.4-3.3-8-5-13.8-5h-8.9zm55.3 7.3c-5.2 0-9.4-1.7-12.6-5.2-3.2-3.5-4.9-7.8-4.9-13.1 0-5 1.6-9.3 4.7-12.9 3.1-3.6 7.2-5.4 12.1-5.4 5.1 0 9.2 1.7 12.2 5 3.1 3.3 4.6 7.7 4.6 13.3l-.1 1.2h-27.1c.2 3.5 1.3 6.2 3.5 8.2 2.1 2 4.6 3 7.5 3 4.6 0 7.7-2 9.4-5.9l5.7 2.4c-1.1 2.7-3 4.9-5.5 6.7-2.6 1.8-5.7 2.7-9.5 2.7zm9.3-22.4c-.1-2-1-3.8-2.7-5.6-1.7-1.8-4.1-2.7-7.4-2.7-2.4 0-4.4.7-6.2 2.2-1.8 1.5-3 3.5-3.6 6h19.9zm20.4 21.3L388.75 17h7l10.1 26.6h.1l10.2-26.6h6.9l-14 34.3zm30.6 0h-6.4V1.2h29.3v6.2h-22.8v16.5h20.5v6h-20.6zm42.3 1.1c-5.2 0-9.4-1.7-12.6-5.2-3.2-3.5-4.9-7.8-4.9-13.1 0-5 1.6-9.3 4.7-12.9 3.2-3.6 7.2-5.4 12.1-5.4 5.1 0 9.2 1.7 12.2 5 3.1 3.3 4.6 7.7 4.6 13.3l-.1 1.2h-27.1c.2 3.5 1.3 6.2 3.5 8.2 2.1 2 4.6 3 7.5 3 4.6 0 7.7-2 9.4-5.9l5.7 2.4c-1.1 2.7-3 4.9-5.5 6.7-2.6 1.8-5.8 2.7-9.5 2.7zm9.2-22.4c-.1-2-1-3.8-2.7-5.6-1.7-1.8-4.1-2.7-7.4-2.7-2.4 0-4.4.7-6.2 2.2-1.8 1.5-3 3.5-3.6 6h19.9zm24 22.4c-3.8 0-7-.9-9.5-2.8s-4.3-4.2-5.5-7l5.7-2.4c1.8 4.3 4.9 6.4 9.3 6.4 2 0 3.7-.4 4.9-1.3 1.3-.9 1.9-2.1 1.9-3.5 0-2.2-1.6-3.8-4.7-4.5l-6.9-1.7c-2.2-.6-4.3-1.6-6.2-3.2-2-1.6-2.9-3.7-2.9-6.3 0-3 1.3-5.5 4-7.4 2.7-1.9 5.9-2.8 9.6-2.8 3 0 5.7.7 8.1 2.1 2.4 1.4 4.1 3.3 5.1 5.9l-5.6 2.3c-1.3-3-3.9-4.6-7.8-4.6-1.9 0-3.5.4-4.8 1.2-1.3.8-2 1.9-2 3.2 0 2 1.5 3.3 4.5 4l6.8 1.6c3.2.7 5.6 2 7.1 3.9 1.5 1.8 2.3 3.9 2.3 6.2 0 3.1-1.3 5.6-3.8 7.7-2.4 2-5.6 3-9.6 3zm32.9-.5c-3.6 0-6.3-1-8.2-2.9-1.9-1.9-2.8-4.6-2.8-8.1v-18h-6V17h6V6.5h6.4V17h8.4v5.9h-8.4v17.5c0 3.7 1.5 5.6 4.6 5.6 1.2 0 2.1-.2 2.9-.6l2.2 5.5c-1.4.7-3.1 1-5.1 1zm-389.6 66.5c-3.6 0-7.2-1.2-10.7-3.6-3.5-2.4-5.8-5.7-6.8-10l5.9-2.4c.7 2.8 2.1 5.1 4.3 7 2.2 1.9 4.6 2.8 7.3 2.8 2.8 0 5.2-.7 7.2-2.2 2-1.5 3-3.5 3-6 0-2.8-1-5-3-6.5s-5.1-2.9-9.4-4.2c-4.4-1.4-7.8-3.2-10.1-5.4s-3.4-5.1-3.4-8.5c0-3.6 1.4-6.7 4.3-9.4 2.8-2.7 6.6-4 11.1-4 4.2 0 7.7 1.1 10.4 3.2s4.4 4.4 5.2 7l-5.9 2.4c-.4-1.6-1.5-3.1-3.1-4.4-1.7-1.4-3.8-2-6.4-2-2.5 0-4.6.7-6.3 2.1-1.8 1.4-2.6 3.1-2.6 5.1 0 1.9.8 3.4 2.4 4.7 1.6 1.3 4 2.4 7.1 3.5 2.5.8 4.5 1.6 6.2 2.3 1.7.7 3.3 1.7 5 3 1.7 1.2 3 2.8 3.9 4.6.9 1.8 1.3 4 1.3 6.4 0 2.4-.5 4.6-1.5 6.5-1 1.9-2.3 3.4-4 4.5-1.7 1.1-3.4 2-5.4 2.6-2 .6-4 .9-6 .9zm37.9 0c-5.2 0-9.4-1.7-12.6-5.2-3.2-3.5-4.9-7.8-4.9-13.1 0-5 1.6-9.3 4.7-12.9 3.1-3.6 7.2-5.4 12.1-5.4 5.1 0 9.2 1.7 12.2 5 3.1 3.3 4.6 7.7 4.6 13.3l-.1 1.2h-27.1c.2 3.5 1.3 6.2 3.5 8.2 2.1 2 4.6 3 7.5 3 4.6 0 7.7-2 9.4-5.9l5.7 2.4c-1.1 2.7-3 4.9-5.5 6.7-2.6 1.8-5.8 2.7-9.5 2.7zm9.2-22.4c-.1-2-1-3.8-2.7-5.6-1.7-1.8-4.1-2.7-7.4-2.7-2.4 0-4.4.7-6.2 2.2-1.8 1.5-3 3.5-3.6 6h19.9zm22.1 22.4c-3.6 0-6.7-1.1-9.1-3.1-2.4-2.1-3.7-4.9-3.7-8.3 0-3.7 1.4-6.7 4.3-8.8 2.9-2.1 6.5-3.2 10.7-3.2 3.8 0 6.9.7 9.3 2.1v-1c0-2.5-.9-4.5-2.6-6.1-1.7-1.5-3.9-2.3-6.4-2.3-1.9 0-3.6.4-5.1 1.3-1.5.9-2.6 2.1-3.1 3.6l-5.9-2.5c.8-2.1 2.4-4 4.7-5.7 2.3-1.8 5.4-2.6 9.2-2.6 4.4 0 8 1.3 10.9 3.9 2.9 2.6 4.3 6.2 4.3 10.8v20.7h-5.9v-4.8h-.3c-2.6 4.1-6.4 6-11.3 6zm1.1-5.9c2.7 0 5.1-1 7.2-3 2.2-2 3.3-4.3 3.3-7-1.8-1.5-4.5-2.2-8.2-2.2-3.1 0-5.5.7-7.1 2-1.6 1.4-2.4 2.9-2.4 4.8 0 1.7.7 3 2.2 4 1.4.9 3.1 1.4 5 1.4zm35.2 5.9c-3.8 0-7-.9-9.5-2.8s-4.3-4.2-5.5-7l5.7-2.4c1.8 4.3 4.9 6.4 9.3 6.4 2 0 3.7-.4 4.9-1.3 1.3-.9 1.9-2.1 1.9-3.5 0-2.2-1.6-3.8-4.7-4.5l-6.9-1.7c-2.2-.6-4.3-1.6-6.2-3.2-2-1.6-2.9-3.7-2.9-6.3 0-3 1.3-5.5 4-7.4 2.7-1.9 5.9-2.8 9.6-2.8 3 0 5.7.7 8.1 2.1 2.4 1.4 4.1 3.3 5.1 5.9l-5.6 2.3c-1.3-3-3.9-4.6-7.8-4.6-1.9 0-3.5.4-4.8 1.2-1.3.8-2 1.9-2 3.2 0 2 1.5 3.3 4.6 4l6.8 1.6c3.2.7 5.6 2 7.1 3.9 1.5 1.8 2.3 3.9 2.3 6.2 0 3.1-1.3 5.6-3.8 7.7-2.5 2-5.8 3-9.7 3zm20.9-31.3c3.3-3.5 7.5-5.2 12.7-5.2 5.1 0 9.4 1.7 12.7 5.2 3.3 3.5 5 7.8 5 13.1 0 5.2-1.7 9.6-5 13.1s-7.5 5.2-12.7 5.2c-5.1 0-9.4-1.7-12.7-5.2-3.3-3.5-5-7.8-5-13.1s1.7-9.6 5-13.1zm4.8 22c2.2 2.3 4.8 3.4 7.9 3.4 3 0 5.7-1.1 7.9-3.4s3.3-5.3 3.3-9-1.1-6.7-3.3-9c-2.2-2.3-4.8-3.4-7.9-3.4-3 0-5.7 1.1-7.9 3.4s-3.3 5.3-3.3 9c0 3.8 1.1 6.8 3.3 9zm36.3-26.1v4.8h.3c.9-1.6 2.4-3 4.4-4.2 2-1.1 4.2-1.7 6.4-1.7 4.2 0 7.5 1.3 9.7 3.9 2.2 2.6 3.4 6.1 3.4 10.5v21h-6.4v-20c0-6.3-2.8-9.5-8.5-9.5-2.7 0-4.8 1.1-6.5 3.2-1.7 2.1-2.5 4.6-2.5 7.4v19h-6.4V83zm76.5 34.3h-30.5v-6.4c9.1-9.2 15-15.2 17.6-18 2.3-2.6 3.8-4.5 4.6-5.8.8-1.3 1.2-3 1.2-4.9 0-2-.8-3.8-2.4-5.3-1.6-1.5-3.7-2.3-6.4-2.3-2.4 0-4.4.7-5.9 2.1-1.5 1.4-2.4 3-2.9 4.6l-5.9-2.4c.8-2.5 2.5-4.9 5-7.1 2.5-2.2 5.8-3.4 9.8-3.4 4.4 0 8.1 1.4 10.9 4.1 2.8 2.7 4.3 5.9 4.3 9.7 0 4.7-2.5 9.7-7.6 15l-14 13.9h22.2zm36.9-6.1c-3.5 4.8-8.2 7.2-13.9 7.2-5.7 0-10.4-2.4-13.9-7.2-3.5-4.8-5.3-10.8-5.3-17.9 0-7.1 1.8-13.1 5.3-17.9 3.5-4.8 8.2-7.2 13.9-7.2 5.7 0 10.4 2.4 13.9 7.2 3.5 4.8 5.3 10.7 5.3 17.9 0 7.2-1.7 13.1-5.3 17.9zm-13.9 1.1c3.8 0 6.9-1.8 9.2-5.4 2.3-3.6 3.5-8.1 3.5-13.5 0-5.5-1.2-10-3.5-13.5-2.3-3.6-5.4-5.4-9.2-5.4-3.9 0-7 1.8-9.2 5.4-2.3 3.6-3.4 8.1-3.4 13.5s1.1 9.9 3.4 13.5c2.2 3.6 5.3 5.4 9.2 5.4zm39.7 5h-6.4V77.4l-9.3 4.1-2.5-5.5 14.1-6.6h4.1zm13.3 1.1l-5.7-2.9 22.2-39.9h-24.2l.1-6.2h30.9V76z" class="st13"/></g><g id="g2969"><g id="g9114" fill="#fff" fill-rule="evenodd" stroke="#fff" stroke-width=".49"><path id="path9116" d="M13.5 12.15c3.57 7.87 1.7 16.86 1.88 25.25-.34 13-2.36 25.84-5.24 38.47-1.83 10.8-4.02 21.75-3.32 32.74.95 3.9 5.82 5.4 9.05 3.4 7.2-3.1 11.76-11.4 20.1-11.8 6.68.1 9.5 6.9 12.92 11.5 1.9 2.9 5.6 4.4 8.9 2.8 4.7-1.7 5.8-7.1 6.2-11.5 1.8-19.6-4.8-39-14.7-55.5C41.6 34.7 31.8 23.1 20 14c-2.4-1.73-5.04-3.06-7.64-4.46l1.13 2.6z"/><path id="path9118" d="M106.57.66c-3.44-.12-4.4 4.2-4.26 6.54-2.5-3.55-8.3-.82-8.5 3.14-.4 4.15 2.1 7.97 3.8 11.56 0 .97 2.9 2.66 1.3 3-3.4.97-6 4.9-4 8.25 1.6 2.8 5.3 2.27 7.8 1.37 2.6.2 4.3 2.38 6.7 3.03-.5 2.82-1.2 6.04-2.2 8.52-11.5 2.7-23.5 2.1-35.3 2.42-7.6-.1-15.4-.1-22.74-1.8-.8-1-2.63-3.2-3.46-1.1.7 7.7 4.47 15.2 10.35 20.3 1.73 1.1 2.6-1.4 1.74-2.7 2.02-1.4 5.6-1.8 8.3-2.4 13.3-2.3 26.8-3.3 40-6 3.1-.4 6.44-1.7 7.44-5 1.8-4.4 2.9-9.2 4.35-13.6 1-2.9 4.6-4 5.3-7.2 1.6-3.9.1-8-.7-11.8-.5-3.4 1.8-6.3 2.35-9.5.4-3.2-2.93-5.9-6-4.7-2.57.6-4.3 2.9-5.2 5.2-.24-3.88-2.1-8.54-6.8-7.8z"/><path id="path9120" d="M43.74 44.1c-10.13.6-18.26 7.37-26.44 12.68-3.12 16.06-7.63 32.1-7.7 48.55-.1 2.6 2.38 5.37 5.05 4 6.44-2.56 9.92-9.66 16.73-11.7 5.1-2.03 10.9.05 14.14 4.3 2.83 3.1 4.4 7.63 8.15 9.74 3.4 1.1 6.82-2.02 6.7-5.47 2.85-15.55-.88-31.46-7.32-45.66-2.48-5.7-5.38-11.23-8.76-16.45h-.6z"/><path id="path9122" d="M15.2 49.13c-1.02 5.67-2.27 11.34-5.74 16.07C7.1 68.3 4.34 71.66 5 75.85c.1 4.4 3.6 9.06.5 13.17-1.63 2.8-5.55 5.4-3.87 9.1 1.16 3.4 6.7 4.95 8.64 1.5 2.14-4.67 3.37-9.93 3.32-15.1.1-3-2.2-5.28-2.3-8.15-.5-1.6 1.5-.44 2-1.72 6-7.8 7.7-19.2 2.6-27.9-.3-1.2-.6 2.1-.8 2.38z"/></g><g id="layer1"><path id="path3398" fill-rule="evenodd" d="M16.48 14.07c2.3 4.8.74 38.27-1.94 50-2.68 11.77-5.36 26.72-5.98 39.3-.28 5.36.54 7.48 4.05 7.48 6.2 0 14.1-13.04 23.9-12.74 9.9.3 13 15 17.6 14.9 4.7-.1 8.4-1.7 8.4-15.9.2-42.6-35.5-77.1-46-82.9z" clip-rule="evenodd"/><path id="path3400" fill-rule="evenodd" d="M47.44 48.1c2.17 3.65 61.5 2.93 61.75-1.2.2-4.13 3.8-11.08 1.1-11.27-2.7-.2-4.6-2.88-7.3-3.08-2.7-.2-5.6 2.5-6.8-1.07-1.3-3.56 3.3-5.07 6.8-5.64-3.1-3.07-4.9-6.47-6.2-10.02-1.4-3.54-2.4-6.8 1.4-8.17 3.8-1.4 3.4 5.75 7.8 9.02-1.3-4.82-1.8-6.8-1.7-9.6.1-2.8-.1-4.94 3.9-4.4 3.9.55 2.2 8.8 5.3 12.18.9-3.2 1.5-7.24 3.7-8.9 2.2-1.67 7.4-1.7 4.1 5.12-3.3 6.83.9 10.53-.1 15.9-1 5.4-4.07 4.4-5.4 7.87-1.3 3.47-3.4 13.1-5.9 16.64-2.5 3.54-56.76 6.9-55.1 11.23-5-4.6-7.6-14.6-7.6-14.6z" clip-rule="evenodd"/><path id="path3404" fill="#fff" fill-rule="evenodd" d="M19.04 57.96c-1.52 7.47-11.05 49.2-6.2 49.74 4.85.52 11.76-12.92 23.07-12.82 11.4.1 15.8 15.07 18.6 14.97 2.8-.1 4.6.98 4.9-15.9.3-16.86-10-38.4-16.1-47.9-8.2.54-17.1 7.15-24.2 11.9z" clip-rule="evenodd"/><path id="path3402" fill-rule="evenodd" d="M16.34 52.7c-2 13.8-9.02 15.45-9.37 21.18-.35 5.74 1.86 6.28 1.72 11.6-.2 5.3-4.9 7.44-5.5 10.32-.6 2.87 2.4 3.8 4.1 3.8 1.7 0 3.5-7.64 4.2-12.5.7-4.84-2.3-7.7-2.3-11.02 0-3.33 4.3-9.42 3.5-4.07 3.6-5.7 5.3-13 3.4-19.3z" clip-rule="evenodd"/><g id="g3406" transform="translate(3.203 2.24) scale(.27176)"><path id="path3408" fill="none" d="M139.16 172.18c-1.95-18.25-19.12-25.42-35.66-23.17-13.9 1.9-32.4 13.7-34.1 28.7-1.93 17 11.4 32.6 28.36 33.2 15.03.6 31.17-6.6 37.93-20.8 2.7-5.7 3.7-11.6 3.4-17.9"/><path id="path3410" d="M147.08 171.53c-1.66-17.2-14.4-28-30.9-30.62-15.92-2.5-33.25 5-44.4 16.2-12.54 12.6-13.04 30-4.26 44.9 8.66 14.7 27.85 19.5 43.56 15.9 21.5-5 37.4-23.8 36-46.2"/><radialGradient id="radialGradient3469" cx="86.63" cy="167.07" r="54.72" gradientUnits="userSpaceOnUse"><stop id="stop3471" offset="0" stop-color="#FFF"/><stop id="stop3473" offset=".06" stop-color="#FBC8B4"/><stop id="stop3475" offset=".07" stop-color="#FBC3B0"/><stop id="stop3477" offset=".18" stop-color="#F7978B"/><stop id="stop3479" offset=".3" stop-color="#F4716B"/><stop id="stop3481" offset=".42" stop-color="#F15251"/><stop id="stop3483" offset=".55" stop-color="#EF3A3D"/><stop id="stop3485" offset=".68" stop-color="#EE292F"/><stop id="stop3487" offset=".82" stop-color="#ED1F27"/><stop id="stop3489" offset="1" stop-color="#ED1C24"/></radialGradient><path id="path3433" fill="url(#radialGradient9190)" stroke="#000" d="M139.16 177.94c-1.5 15.63-13.94 28.18-28.94 31.83-15.87 3.85-33.4-2.26-39.1-18.58-2.9-8.4-2.37-16.9 2.64-24.2 4.22-6.2 11.03-11 17.78-14.1 13.92-6.4 33.83-7.1 43.53 7 3.67 5.3 4.32 11.6 4.1 17.9"/></g></g><g id="g10776"><g id="g10828" fill="#fff" transform="matrix(.2614 0 0 .28112 41.58 21.545)"><ellipse id="ellipse10830" cx="146.6" cy="109.9" rx="98.74" ry="91.11"/><g id="g10832" fill="#a4c639" stroke="#fff" stroke-width="7.17"><rect id="rect10834" width="190.3" height="188.9" x="51.42" y="85.53" rx="25.96"/><g id="g10836"><rect id="rect10838" width="10.14" height="43" x="177.62" y="-94" rx="5.07" transform="rotate(29)"/><ellipse id="ellipse10840" cx="146.6" cy="109.9" stroke-opacity="0" rx="91.57" ry="83.95"/><rect id="rect10842" width="47.84" height="132.9" x="3.57" y="109.6" rx="23.92"/><rect id="use10844" width="47.84" height="132.9" x="88.6" y="206.57" rx="23.92"/><rect id="rect10846" width="183.2" height="181.8" x="54.99" y="89.1" stroke-opacity="0" rx="22.12"/><path id="line10848" d="M48 113.5h197"/></g><g id="use10850" transform="matrix(-1 0 0 1 293.1 0)"><rect id="rect10934" width="10.14" height="43" x="177.62" y="-94" rx="5.07" transform="rotate(29)"/><ellipse id="ellipse10936" cx="146.6" cy="109.9" stroke-opacity="0" rx="91.57" ry="83.95"/><rect id="rect10938" width="47.84" height="132.9" x="3.57" y="109.6" rx="23.92"/><rect id="use10940" width="47.84" height="132.9" x="88.6" y="206.57" rx="23.92"/><rect id="rect10942" width="183.2" height="181.8" x="54.99" y="89.1" stroke-opacity="0" rx="22.12"/><path id="line10944" d="M48 113.5h197"/></g></g><circle id="circle10852" cx="188.24" cy="69.08" r="7.67"/><circle id="circle10854" cx="104.88" cy="69.08" r="7.67"/></g></g></g></svg>